<svg xmlns="http://www.w3.org/2000/svg" viewBox="0 0 32 32">
  <rect width="32" height="32" rx="6" fill="#FF5623"/>
  <g transform="translate(2, 9) scale(0.1458)">
    <path fill="white" d="M166.32,42.96c-8.65-15.63-30.14-22.8-48.12-18.08-1.89.5-4.01-.69-4.94-2.77-3.96-8.83-12.82-18.66-26.26-21.57-27.6-4.55-33.88,21.4-33.88,21.4,3.19-5.37,13.7-12.48,28.56-11.02,14.32,1.41,20.37,13.35,21.43,15.73,3.18,7.1,10.71,10.87,17.92,8.99,15.66-4.11,29.51,4.68,34.37,13.45,4.65,8.41,3.89,20.45-4.81,28.6-5.25,4.92-11.57,6.13-18.75,4.64-13.85-2.86-30.92-15.71-49.7-31.1-2.58-2.11-5.1-4.18-7.56-6.15-19.33-15.53-34.3-17-43.47-15.48-9.13,1.51-18.35,6.31-24.42,13.57-11.66,13.95-10.41,49.96,22.5,52.78,29.28,2.51,51.75-23,51.75-23-26.45,20.7-56.91,16.42-65.3-.64-6.73-13.68,7.08-49.96,51.97-18.57,2.55,1.79,4.92,4,7.47,6.09,25.78,21.13,59.39,48.19,83.11,25.98,3.91-3.67,7.06-8.18,9.17-13.12,3.98-9.32,4.25-20.16-1.04-29.73h0Z"/>
  </g>
</svg>
